<svg xmlns="http://www.w3.org/2000/svg" width="180" height="180" viewBox="0 0 180 180"><g fill="none" stroke="#b9a66e" stroke-linecap="round"><path d="M0 165.7q7.5 -1.8 15 -4" stroke-width="0.5" stroke-opacity="0.2"/><path d="M135.9 97.7q13 0 25.6 3.1" stroke-width="0.5" stroke-opacity="0.2"/><path d="M125.6 9.7q12.9 1.5 25.8 -0.7" stroke-width="0.4" stroke-opacity="0.2"/><path d="M166.2 123.9q12.2 3.3 24.7 1.7" stroke-width="0.5" stroke-opacity="0.1"/><path d="M150.7 59.8q5.7 -2.3 11.8 -2.2" stroke-width="0.8" stroke-opacity="0.2"/><path d="M131.3 158q4.7 -0.9 9.3 -1.9" stroke-width="0.5" stroke-opacity="0.1"/><path d="M163.6 9.9q9 1.3 17.3 -2.4" stroke-width="0.6" stroke-opacity="0.1"/><path d="M73 51q8.7 -0.4 17.4 -1.2" stroke-width="0.6" stroke-opacity="0.1"/><path d="M163.2 82.4q15.1 1.9 30.2 3.7" stroke-width="0.6" stroke-opacity="0.2"/><path d="M169.1 71.4q12.7 -3.8 25.8 -5.9" stroke-width="0.5" stroke-opacity="0.1"/><path d="M143 158q-1 5.4 -3.1 10.4" stroke-width="0.4" stroke-opacity="0.1"/><path d="M179.3 39.6q11.8 -3.3 23.2 -7.7" stroke-width="0.4" stroke-opacity="0.2"/><path d="M159.2 160.3q15 4.3 29 11.1" stroke-width="0.3" stroke-opacity="0.1"/><path d="M13.7 0.3q11.7 -2.9 23.3 -5.8" stroke-width="0.6" stroke-opacity="0.1"/><path d="M158.8 42.3q-3 8.3 -6.2 16.6" stroke-width="0.3" stroke-opacity="0.2"/><path d="M114.6 166q-4.1 3 -3 8" stroke-width="0.6" stroke-opacity="0.2"/><path d="M47.9 40.1q-2 6.6 -0.8 13.4" stroke-width="0.7" stroke-opacity="0.2"/><path d="M89.7 5.9q-3 4.6 -4 10.1" stroke-width="0.7" stroke-opacity="0.1"/><path d="M159 155q15.7 6.3 31 13.4" stroke-width="0.4" stroke-opacity="0.2"/><path d="M158.8 71.7q7.1 -0.3 14.1 -1.2" stroke-width="0.5" stroke-opacity="0.2"/><path d="M132.3 60.3q2.1 13.3 1.9 26.8" stroke-width="0.8" stroke-opacity="0.2"/><path d="M113.8 157q14.8 -6.4 30.7 -8.5" stroke-width="0.5" stroke-opacity="0.2"/><path d="M138.9 170.2q9.3 -4.8 19.7 -5.7" stroke-width="0.6" stroke-opacity="0.2"/><path d="M101.1 91.2q13.4 -4.5 27.5 -3.4" stroke-width="0.4" stroke-opacity="0.2"/><path d="M36.5 130.1q7.5 -2.2 15.1 -3.7" stroke-width="0.3" stroke-opacity="0.2"/><path d="M148.1 164.8q16.1 -0.2 31.2 5.1" stroke-width="0.7" stroke-opacity="0.2"/><path d="M130.3 161.7q3.7 3.5 2.9 8.5" stroke-width="0.3" stroke-opacity="0.1"/><path d="M108.9 170.2q1.1 6.5 4.2 12.3" stroke-width="0.4" stroke-opacity="0.2"/><path d="M178.9 76.1q12.5 2.6 24.7 6.2" stroke-width="0.3" stroke-opacity="0.1"/><path d="M145.4 175.4q6.4 0.1 11.1 4.5" stroke-width="0.4" stroke-opacity="0.2"/><path d="M30.7 14.1q7.5 0.9 15 2" stroke-width="0.8" stroke-opacity="0.1"/><path d="M74.4 56.6q2.6 -4 7.3 -3.5" stroke-width="0.4" stroke-opacity="0.2"/><path d="M139.9 137.5q8.6 4.8 18.4 6.1" stroke-width="0.6" stroke-opacity="0.2"/><path d="M62.6 73.3q10.5 1.3 20.9 -0.1" stroke-width="0.6" stroke-opacity="0.2"/><path d="M131.2 159.2q13.6 6.3 27.1 12.8" stroke-width="0.8" stroke-opacity="0.2"/><path d="M64.4 14.3q7.5 4.2 15.9 5.7" stroke-width="0.8" stroke-opacity="0.2"/><path d="M37.3 42.9q14.1 -3.3 27 -10" stroke-width="0.6" stroke-opacity="0.2"/><path d="M96.5 79.7q15.4 -0.5 30.6 1.7" stroke-width="0.6" stroke-opacity="0.1"/><path d="M71.1 33.8q11.8 -0.9 22.6 -5.6" stroke-width="0.5" stroke-opacity="0.2"/><path d="M157.9 20.9q-0.9 8.2 -5.9 14.9" stroke-width="0.5" stroke-opacity="0.1"/><path d="M124.7 161.6q6.3 -0.4 12.1 -3.2" stroke-width="0.4" stroke-opacity="0.1"/><path d="M112.8 2.9q14.7 -1 29 2.4" stroke-width="0.5" stroke-opacity="0.2"/><path d="M171.9 98.6q10.9 4.2 22.6 5.8" stroke-width="0.6" stroke-opacity="0.1"/><path d="M8.2 110.4q1.2 7 -1 13.8" stroke-width="0.6" stroke-opacity="0.2"/><path d="M146.3 43.1q14.3 -6.7 29 -12.4" stroke-width="0.7" stroke-opacity="0.2"/><path d="M144.8 18.8q16 -0.4 31.9 0" stroke-width="0.7" stroke-opacity="0.2"/></g><g fill="#a8955c" fill-opacity=".14"><circle cx="130.9" cy="163.4" r="1.1"/><circle cx="34.2" cy="129.5" r="0.5"/><circle cx="22.5" cy="170.8" r="1.2"/><circle cx="10.2" cy="13.9" r="0.6"/><circle cx="169.3" cy="156.6" r="1.2"/><circle cx="49.9" cy="35.7" r="0.4"/><circle cx="84.6" cy="100.7" r="0.5"/><circle cx="58.2" cy="86.6" r="0.6"/><circle cx="9.9" cy="8" r="0.5"/><circle cx="113.3" cy="84.2" r="1"/><circle cx="131.1" cy="91.9" r="1"/><circle cx="69.8" cy="110.4" r="1.2"/><circle cx="138.7" cy="173.2" r="1"/><circle cx="108.6" cy="144.5" r="0.5"/><circle cx="11.8" cy="130.8" r="0.9"/><circle cx="77.6" cy="98.1" r="0.7"/><circle cx="89" cy="21.9" r="0.5"/><circle cx="14.2" cy="63.8" r="0.7"/><circle cx="36" cy="115.2" r="0.5"/><circle cx="9.4" cy="0.3" r="1.1"/><circle cx="156.5" cy="8" r="1"/><circle cx="57.3" cy="72.4" r="1.1"/><circle cx="143.4" cy="2.1" r="1.2"/><circle cx="37" cy="115.7" r="0.7"/><circle cx="6" cy="31.1" r="1"/><circle cx="135.7" cy="44.8" r="1.1"/></g></svg>